<?xml version="1.0" encoding="utf-8"?>
<!-- Generator: Adobe Illustrator 25.2.0, SVG Export Plug-In . SVG Version: 6.00 Build 0)  -->
<svg version="1.1" id="Layer_1" xmlns="http://www.w3.org/2000/svg" xmlns:xlink="http://www.w3.org/1999/xlink" x="0px" y="0px"
	 viewBox="0 0 1366 768" style="enable-background:new 0 0 1366 768;" xml:space="preserve">
<style type="text/css">
	.st0{fill:#0071BC;}
	.st1{font-family:'Audiowide-Regular';}
	.st2{font-size:91.4065px;}
	.st3{fill:#F15A24;}
	.st4{fill:#446785;}
	.st5{fill:#D8D9DA;}
	.st6{fill:#2C5672;}
	.st7{fill:#B1B2B4;}
	.st8{fill:#5582A0;}
</style>
<text transform="matrix(1 0 0 1 109.271 630.0293)" class="st0 st1 st2">RUDRA ENGINEERING</text>
<g>
	<g>
		<path class="st3" d="M106.48,498.81c44.36-0.74,88.73-1.05,133.09-1.59l133.08-0.91c88.73-0.54,177.45-0.49,266.18-0.76
			c88.73,0.26,177.45,0.23,266.18,0.75l133.09,0.91c44.36,0.55,137.09,0.86,181.45,1.6c-44.36,0.73-137.09,1.06-181.45,1.6
			l-133.09,0.91c-88.72,0.52-177.45,0.49-266.18,0.75c-88.73-0.27-177.46-0.22-266.18-0.76l-133.08-0.91
			C195.21,499.86,150.84,499.55,106.48,498.81z"/>
		<path class="st3" d="M638.84,503.06L638.84,503.06c-31.47-0.1-62.93-0.15-94.39-0.21c-56.31-0.1-114.53-0.2-171.8-0.55
			l-133.08-0.91c-15.33-0.19-30.65-0.35-45.98-0.51c-28.55-0.3-58.08-0.61-87.12-1.09v-1.97c29.09-0.48,58.67-0.79,87.28-1.09
			c15.27-0.16,30.54-0.32,45.81-0.5l133.09-0.91c57.13-0.34,115.23-0.45,171.4-0.55c31.59-0.06,63.19-0.11,94.78-0.21
			c30.24,0.09,60.48,0.14,90.72,0.2c57.51,0.11,116.98,0.21,175.46,0.55l133.09,0.91c18.87,0.23,46.33,0.42,75.41,0.62
			c39.6,0.27,80.55,0.55,106.05,0.98l0,1.97c-25.54,0.42-66.56,0.71-106.23,0.98c-29,0.2-56.4,0.39-75.22,0.62l-133.09,0.91
			c-58.46,0.34-117.89,0.45-175.37,0.55C699.38,502.92,669.11,502.97,638.84,503.06z M183.91,498.81c3.24,0.03,6.47,0.07,9.7,0.1
			c15.33,0.16,30.65,0.32,45.98,0.51l133.08,0.91c57.26,0.35,115.48,0.45,171.79,0.55c31.46,0.06,62.92,0.11,94.39,0.21
			c30.27-0.09,60.54-0.14,90.81-0.2c57.48-0.1,116.91-0.21,175.36-0.55l133.09-0.91c18.7-0.23,45.86-0.42,74.64-0.61
			c-28.79-0.2-55.95-0.39-74.65-0.62L905,497.28c-58.48-0.34-117.95-0.45-175.46-0.55c-30.24-0.05-60.48-0.11-90.72-0.2
			c-31.59,0.1-63.18,0.15-94.78,0.21c-56.18,0.1-114.27,0.2-171.4,0.55l-133.08,0.91c-15.27,0.18-30.54,0.34-45.81,0.5
			C190.49,498.74,187.21,498.78,183.91,498.81z"/>
	</g>
</g>
<g>
	<g>
		<path class="st3" d="M106.48,658.12c44.36-0.74,88.73-1.05,133.09-1.59l133.08-0.91c88.73-0.53,177.45-0.49,266.18-0.76
			c88.73,0.25,177.45,0.23,266.18,0.75l133.09,0.91c44.36,0.54,137.09,0.86,181.45,1.6c-44.36,0.74-137.09,1.06-181.45,1.6
			l-133.09,0.91c-88.72,0.52-177.45,0.5-266.18,0.75c-88.73-0.27-177.46-0.22-266.18-0.76l-133.08-0.91
			C195.21,659.17,150.84,658.85,106.48,658.12z"/>
		<path class="st3" d="M638.84,662.36L638.84,662.36c-31.5-0.1-63-0.15-94.5-0.21c-56.27-0.1-114.46-0.2-171.69-0.55l-133.08-0.91
			c-15.37-0.19-30.74-0.35-46.11-0.51c-28.51-0.3-57.99-0.6-86.99-1.08v-1.97c29.05-0.48,58.58-0.79,87.14-1.09
			c15.32-0.16,30.64-0.32,45.96-0.51l133.09-0.91c57.68-0.35,116.33-0.45,173.04-0.55c31.05-0.06,62.09-0.11,93.14-0.21
			c30.14,0.09,60.28,0.14,90.41,0.19c57.61,0.1,117.18,0.21,175.77,0.55l133.09,0.91c18.8,0.23,46.13,0.42,75.07,0.62
			c39.73,0.27,80.82,0.56,106.39,0.98l0,1.97c-25.48,0.42-66.4,0.71-105.98,0.98c-29.1,0.2-56.59,0.39-75.47,0.62l-133.09,0.91
			c-58.88,0.35-118.74,0.45-176.63,0.56C698.54,662.22,668.69,662.28,638.84,662.36z M183.9,658.12c3.2,0.03,6.39,0.07,9.57,0.1
			c15.37,0.16,30.74,0.32,46.11,0.51l133.08,0.91c57.22,0.35,115.41,0.45,171.68,0.55c31.5,0.06,63,0.11,94.5,0.21
			c29.85-0.08,59.7-0.14,89.55-0.19c57.89-0.1,117.75-0.21,176.62-0.56l133.09-0.91c18.69-0.23,45.81-0.42,74.59-0.62
			c-28.76-0.2-55.9-0.38-74.59-0.61L905,656.59c-58.59-0.34-118.16-0.45-175.76-0.55c-30.14-0.05-60.27-0.11-90.41-0.19
			c-31.04,0.09-62.09,0.15-93.14,0.21c-56.71,0.1-115.36,0.21-173.03,0.55l-133.08,0.91c-15.32,0.19-30.64,0.35-45.96,0.51
			C190.39,658.05,187.15,658.08,183.9,658.12z"/>
	</g>
</g>
<g>
	<g>
		<g>
			<path class="st3" d="M1191.07,412.61c-40.27,36.91-86.63,35.93-136.24,23.35c-16.52-4.18-41.67-13.56-69.58-21.93
				c-50.87-15.28-87.93-4.12-104.33,3.06c-29.79,15.11-41.86,37.13-45.14,41.11c4.33-5.61,23.56-44.19,82.03-55.31
				c31.84-5.1,70.1,1.73,110.45,12.93c39.81,10.34,86.09,29.29,131.73,9.68c21.98-8.78,41.44-23.84,51.44-43.78
				c10.55-19.92,6.7-43.7-6.27-59.69c-11.36-17.1-31.65-26.75-49.36-21.94c-17.52,4.21-30.75,19.57-30.99,34.99
				c0.07,3.35,0.59,6.58,1.38,9.69c2.57,6.23,8.12,14.66,19.68,16.81c18.96,3.51,7.63-12.04,11.22-22.66
				c3.61-10.59,10.37-15.7,0.93-23.84c0,0,35,5.54,24.41,37.18c0,0-4.03,6.4-0.19,10.12c3.82,3.73,8.68-3.01,8.68-3.01
				s-7.25,28.24-39.82,20.72c-31.16-7.2-40.86-52.69-14.61-73.11c5.18-4.52,11.52-8,18.55-9.82c19-5.48,41.16,4.93,53.09,22.65
				c13.82,16.45,18.31,42.54,7.08,63.78C1209.58,394.93,1201.14,404.6,1191.07,412.61"/>
			<path class="st3" d="M836.54,458.83L835,457.6c0.43-0.56,1.02-1.47,1.79-2.65c6.92-10.63,27.97-42.97,80.84-53.03
				c7.19-1.15,14.98-1.73,23.18-1.73c23.76,0,51.63,4.67,87.72,14.68c5.96,1.55,11.96,3.26,18.31,5.07
				c22.58,6.44,45.94,13.1,70.07,13.1c15.5,0,29.47-2.76,42.7-8.44c23.58-9.42,41.66-24.8,50.95-43.32
				c9.79-18.47,7.31-42.03-6.16-58.62c-9.23-13.89-24.59-22.81-39.19-22.81c-3.13,0-6.21,0.4-9.14,1.2
				c-16.75,4.03-30.03,18.99-30.26,34.06c0.06,3.01,0.5,6.1,1.35,9.44c2.54,6.14,7.93,14.04,18.9,16.08
				c4.77,0.88,7.76,0.58,9.11-0.94c1.55-1.74,1.12-5.31,0.68-9.09c-0.45-3.83-0.97-8.17,0.32-11.97c0.91-2.66,2.01-5,2.99-7.06
				c2.98-6.28,4.78-10.07-1.77-15.72l-2.62-2.26l3.42,0.54c0.68,0.11,16.72,2.77,23.9,14.61c3.97,6.54,4.4,14.57,1.29,23.86
				l-0.1,0.21c-0.04,0.06-3.55,5.77-0.34,8.89c0.59,0.57,1.2,0.85,1.88,0.85c2.15,0,4.57-2.69,5.31-3.73l1.75,0.82
				c-0.06,0.23-6.12,22.73-30.31,22.73c-3.36,0-6.95-0.44-10.68-1.3c-14.59-3.37-25.87-15.51-29.43-31.67
				c-3.71-16.82,1.82-33.36,14.44-43.17c5.42-4.73,11.98-8.2,18.91-10c3.43-0.99,7.08-1.5,10.81-1.5c16.29,0,33.3,9.64,43.34,24.55
				c14.93,17.76,17.89,44.44,7.14,64.79c-5.39,10.88-13.61,20.76-24.4,29.35c-23.06,21.14-49.89,31.44-81.97,31.44
				c-16.12,0-34.16-2.59-55.13-7.91c-9.11-2.31-20.71-6.15-34.14-10.59c-10.74-3.56-22.92-7.59-35.49-11.35
				c-16.8-5.05-33.52-7.6-49.7-7.6c-24.55,0-42.89,5.78-53.96,10.62c-25.3,12.83-37.54,30.51-42.78,38.06
				C837.66,457.31,837.03,458.23,836.54,458.83z M935.27,405.4c16.37,0,33.28,2.59,50.26,7.69c12.59,3.78,24.78,7.81,35.54,11.37
				c13.39,4.43,24.96,8.26,34,10.55c20.81,5.28,38.69,7.85,54.65,7.85c31.56,0,57.95-10.13,80.69-30.97
				c10.62-8.44,18.65-18.1,23.92-28.75c10.4-19.68,7.53-45.46-6.96-62.71c-9.74-14.47-26.11-23.76-41.77-23.76
				c-3.55,0-7.01,0.48-10.29,1.43c-6.66,1.73-12.94,5.05-18.18,9.62c-12.05,9.37-17.31,25.16-13.77,41.23
				c3.4,15.41,14.11,26.98,27.95,30.18c3.59,0.83,7.03,1.25,10.24,1.25c16.66,0,24.06-11.04,26.89-17.22
				c-1.08,0.75-2.33,1.33-3.65,1.33c-1.21,0-2.3-0.47-3.26-1.41c-4.12-3.99-0.58-10.31-0.02-11.24c2.88-8.67,2.5-16.11-1.14-22.1
				c-4.82-7.95-14.25-11.52-19.24-12.92c4.57,5.47,2.42,10.01-0.22,15.57c-0.95,2.01-2.04,4.29-2.9,6.84
				c-1.14,3.38-0.68,7.31-0.23,11.11c0.5,4.23,0.98,8.23-1.16,10.63c-1.87,2.11-5.33,2.61-10.95,1.57
				c-11.85-2.2-17.64-10.68-20.41-17.4c-0.93-3.61-1.39-6.86-1.46-10.05c0.25-16.23,13.9-31.68,31.74-35.97
				c3.07-0.83,6.32-1.26,9.63-1.26c15.48,0,31.11,9.05,40.78,23.62c13.9,17.13,16.46,41.55,6.32,60.69
				c-9.49,18.93-27.94,34.65-51.94,44.24c-13.45,5.78-27.68,8.6-43.45,8.6c-24.41,0-47.89-6.7-70.61-13.18
				c-6.34-1.81-12.33-3.52-18.28-5.06c-35.93-9.97-63.64-14.62-87.21-14.62c-8.09,0-15.77,0.57-22.84,1.7
				c-12.02,2.29-22.37,5.74-31.26,9.84C898.12,409.47,914.52,405.4,935.27,405.4z"/>
		</g>
	</g>
	<g>
		<g>
			<path class="st3" d="M860.83,379.73c0,0-8.34,19.95,10.05,18.3c18.37-1.67,57.77-53.44,104.16-38.93
				c46.37,14.53,61.55,13.53,75.17,0.93c0,0-17.26,34.33-51.14,25.87c-33.89-8.51-114.95-11.64-165.22,63.19
				C833.85,449.1,831.28,402.45,860.83,379.73"/>
			<path class="st3" d="M833.03,452.09l-0.16-2.94c-0.03-0.47-2.26-47.43,27.36-70.2l2.93-2.25l-1.42,3.41
				c-0.04,0.09-3.71,9.06-0.48,13.91c1.62,2.43,4.75,3.47,9.54,3.04c5.78-0.53,14.21-6.59,23.99-13.61
				c17.3-12.43,38.84-27.89,63.53-27.89c5.77,0,11.5,0.88,17.03,2.61c23.38,7.33,38.66,10.59,49.53,10.59
				c10.27,0,17.43-2.74,24.68-9.45l1.55,1.17c-0.14,0.28-14.27,27.75-41.47,27.75c0,0,0,0,0,0c-3.52,0-7.15-0.46-10.79-1.37
				c-10.94-2.75-24.08-4.26-37-4.26c-30.67,0-87.97,8.71-127.17,67.05L833.03,452.09z M858.84,382.64
				c-22.03,19.28-23.99,53.05-24.05,63.34c39.64-56.79,96.44-65.35,127.05-65.35c13.07,0,26.38,1.53,37.48,4.32
				c3.49,0.87,6.96,1.31,10.31,1.31c0,0,0,0,0,0c18.97,0,31.35-14.09,36.69-21.79c-6.21,4.35-12.9,6.26-21.45,6.26
				c-11.23,0-26.22-3.2-50.12-10.68c-5.34-1.67-10.87-2.52-16.44-2.52c-24.05,0-45.3,15.26-62.38,27.52
				c-10.42,7.48-18.65,13.39-24.96,13.97c-0.76,0.07-1.47,0.1-2.15,0.1c-4.34,0-7.44-1.35-9.21-4.01
				C857.14,391.4,857.93,386.06,858.84,382.64z"/>
		</g>
	</g>
	<g>
		<g>
			<path class="st3" d="M1127.6,416.38c-23.76,17.36-49.36,5.37-73.91-5.92c-32.06-14.77-63.06-12.13-63.06-12.13
				s32.59-9.49,68.36,1.85c35.76,11.35,66.66-4.98,70.17-23.53C1129.16,376.64,1151.36,398.99,1127.6,416.38"/>
			<path class="st3" d="M1101.12,426.1c-15.76,0-31.78-7.37-47.28-14.5l-0.56-0.26c-23.08-10.63-45.46-12.22-56.75-12.22
				c-3.66,0-5.8,0.18-5.82,0.18l-0.36-1.93c0.13-0.04,13.12-3.76,31.37-3.76c13.17,0,25.81,1.89,37.56,5.62
				c7.74,2.46,15.56,3.7,23.25,3.7c25.44,0,43.19-13.46,45.65-26.48l0.35-1.84l1.32,1.33c0.43,0.44,10.62,10.84,9.64,23.26
				c-0.54,6.81-4.34,12.86-11.32,17.96C1119.96,423.18,1111.11,426.1,1101.12,426.1z M1000.78,397.23
				c12.29,0.4,32.52,2.75,53.32,12.33l0.56,0.26c15.3,7.04,31.12,14.32,46.45,14.32c9.56,0,18.03-2.8,25.9-8.55
				c6.49-4.75,10.02-10.3,10.51-16.51c0.71-9.04-5.23-17.22-7.86-20.36c-3.85,13.19-21.87,26.2-47.14,26.2
				c-7.89,0-15.91-1.28-23.85-3.79c-11.56-3.67-24-5.52-36.96-5.52C1013.36,395.59,1006.13,396.38,1000.78,397.23z"/>
		</g>
	</g>
	<g>
		<g>
			<path class="st3" d="M1158.93,457.12c2.38,5.28,2.81,11.26-12.71,16.1c-10.29,3.2-22.94,2.36-33.72,0.8
				c-16.63-2.41-31.49-5.35-31.49-5.35s-17.08-1.05-7.8,16.42c0,0-11.84-2.83-20.11-15.11c-8.27-12.26-34.93-32.78-43.33-21.17
				c-8.43,11.59,6.82,15.37-6.46,29.7c0,0-33.75-52.43-76.65-55.23c-40.22-2.62-63.41,17.02-63.41,17.02s34.29-42.43,116.92-18.52
				c82.63,23.89,91.11,41.34,129.85,37.68c0,0,25.15-1.83,36.42-5.35C1151.02,452.66,1157.21,453.33,1158.93,457.12"/>
			<path class="st3" d="M1075.1,486.55l-2.12-0.51c-0.5-0.12-12.31-3.07-20.7-15.52c-6.56-9.73-24.25-24.17-35.24-24.17
				c-2.88,0-5,0.99-6.48,3.03c-3.52,4.84-2.63,8.05-1.6,11.76c1.28,4.58,2.73,9.76-4.94,18.04l-0.86,0.93l-0.69-1.07
				c-0.34-0.52-33.99-52.04-75.89-54.78c-2.43-0.16-4.88-0.24-7.28-0.24c-34.88,0-55.23,16.86-55.43,17.03l-1.4-1.37
				c0.21-0.26,21.73-26.19,70.05-26.19c14.95,0,31.07,2.47,47.91,7.35c34.49,9.97,56.37,18.94,72.34,25.49
				c19.22,7.88,30.82,12.64,47.5,12.64c0,0,0,0,0.01,0c3.06,0,6.21-0.16,9.64-0.48c0.27-0.02,25.19-1.87,36.22-5.31
				c1.56-0.49,3.28-0.76,4.97-0.76c4.24,0,7.5,1.6,8.71,4.29c1.04,2.3,2.04,5.34,0.64,8.47c-1.63,3.62-6.19,6.55-13.95,8.97
				c-4.76,1.48-10.44,2.23-16.89,2.23c-5.13,0-10.77-0.46-17.26-1.4c-16.07-2.33-30.67-5.19-31.51-5.35c0,0.01-0.16,0-0.38,0
				c-1.45,0-6.34,0.25-8.24,3.41c-1.51,2.52-0.89,6.42,1.85,11.58L1075.1,486.55z M1017.04,444.38c11.59,0,30.07,14.96,36.87,25.04
				c5.87,8.71,13.66,12.56,17.38,13.99c-2.15-4.8-2.41-8.62-0.75-11.38c2.37-3.94,7.73-4.36,9.92-4.36c0.38,0,0.6,0.01,0.6,0.01
				c0.28,0.05,15.16,2.98,31.57,5.36c6.4,0.93,11.95,1.38,16.98,1.38c6.25,0,11.74-0.72,16.31-2.14c7.09-2.21,11.37-4.86,12.74-7.9
				c0.85-1.89,0.65-4-0.63-6.85c-0.89-1.96-3.48-3.13-6.92-3.13c-1.49,0-3.01,0.23-4.38,0.67c-11.25,3.51-35.61,5.32-36.65,5.39
				c-3.47,0.33-6.68,0.49-9.81,0.49c0,0,0,0-0.01,0c-17.06,0-28.8-4.81-48.25-12.78c-15.93-6.53-37.75-15.48-72.14-25.42
				c-16.67-4.82-32.6-7.27-47.36-7.27c-29.98,0-49.39,10.12-59.64,17.6c9.53-4.98,25.41-11.01,46.43-11.01
				c2.44,0,4.93,0.08,7.41,0.24c39.47,2.57,71.56,47.1,76.7,54.61c5.98-6.89,4.85-10.95,3.65-15.24c-1.07-3.85-2.19-7.83,1.9-13.45
				C1010.81,445.68,1013.53,444.38,1017.04,444.38z"/>
		</g>
	</g>
</g>
<g>
	<g>
		<g>
			<path class="st3" d="M138.95,412.61c40.28,36.91,86.64,35.93,136.25,23.35c16.52-4.18,41.67-13.56,69.58-21.93
				c50.87-15.28,87.93-4.12,104.32,3.06c29.8,15.11,41.86,37.13,45.14,41.11c-4.33-5.61-23.56-44.19-82.04-55.31
				c-31.83-5.1-70.11,1.73-110.45,12.93c-39.81,10.34-86.09,29.29-131.72,9.68c-21.98-8.78-41.44-23.84-51.44-43.78
				c-10.55-19.92-6.7-43.7,6.27-59.69c11.36-17.1,31.65-26.75,49.36-21.94c17.52,4.21,30.75,19.57,30.99,34.99
				c-0.07,3.35-0.59,6.58-1.39,9.69c-2.56,6.23-8.11,14.66-19.67,16.81c-18.96,3.51-7.63-12.04-11.22-22.66
				c-3.61-10.59-10.37-15.7-0.93-23.84c0,0-35.01,5.54-24.41,37.18c0,0,4.02,6.4,0.18,10.12c-3.82,3.73-8.68-3.01-8.68-3.01
				s7.25,28.24,39.81,20.72c31.15-7.2,40.86-52.69,14.61-73.11c-5.19-4.52-11.52-8-18.55-9.82c-19-5.48-41.15,4.93-53.08,22.65
				c-13.82,16.45-18.3,42.54-7.08,63.78C120.45,394.93,128.89,404.6,138.95,412.61"/>
			<path class="st3" d="M493.5,458.83c-0.49-0.6-1.13-1.51-2-2.78c-5.23-7.55-17.48-25.23-42.82-38.08
				c-11.01-4.82-29.35-10.6-53.9-10.6c-16.18,0-32.9,2.56-49.69,7.6c-12.57,3.77-24.75,7.8-35.5,11.36
				c-13.42,4.44-25.02,8.28-34.12,10.59c-20.97,5.32-39.01,7.91-55.13,7.91c0,0,0,0,0,0c-32.08,0-58.91-10.3-82.03-31.48
				c-10.74-8.54-18.95-18.42-24.35-29.32c-10.74-20.33-7.78-47,7.21-64.85c9.98-14.83,26.99-24.46,43.27-24.46
				c3.73,0,7.38,0.51,10.84,1.5c6.9,1.79,13.46,5.26,18.93,10.03c12.57,9.77,18.1,26.31,14.39,43.13
				c-3.56,16.17-14.84,28.31-29.43,31.68c-3.73,0.86-7.33,1.3-10.68,1.3c-24.19,0-30.25-22.51-30.31-22.73l1.75-0.82
				c0.75,1.04,3.17,3.73,5.31,3.73c0.68,0,1.3-0.28,1.88-0.84c3.22-3.12-0.29-8.83-0.33-8.89l-0.1-0.21
				c-3.11-9.29-2.68-17.32,1.29-23.86c7.18-11.84,23.22-14.51,23.9-14.61l3.42-0.54l-2.62,2.26c-6.55,5.65-4.75,9.44-1.77,15.72
				c0.98,2.06,2.08,4.39,2.99,7.05c1.29,3.81,0.77,8.15,0.32,11.98c-0.45,3.78-0.87,7.35,0.67,9.09c1.35,1.52,4.35,1.83,9.12,0.94
				c10.98-2.04,16.36-9.94,18.94-16.21c0.81-3.2,1.25-6.3,1.31-9.34c-0.23-15.04-13.51-29.99-30.23-34.01
				c-2.96-0.8-6.03-1.21-9.17-1.21c-14.6,0-29.97,8.92-39.14,22.74c-13.52,16.67-16,40.22-6.22,58.68
				c9.29,18.54,27.38,33.92,50.94,43.33c13.25,5.69,27.22,8.45,42.72,8.45c24.13,0,47.48-6.66,70.07-13.1
				c6.35-1.81,12.35-3.52,18.33-5.07c36.07-10.01,63.95-14.68,87.7-14.68c8.19,0,15.98,0.58,23.15,1.73
				c52.89,10.06,73.95,42.4,80.87,53.03c0.77,1.18,1.36,2.09,1.79,2.65L493.5,458.83z M164.42,296.67
				c-15.65,0-32.02,9.29-41.7,23.68c-14.55,17.33-17.42,43.11-7.03,62.77c5.28,10.66,13.31,20.32,23.87,28.72
				c22.79,20.88,49.19,31.01,80.75,31.01c15.96,0,33.83-2.57,54.65-7.85c9.04-2.29,20.6-6.12,33.99-10.55
				c10.76-3.56,22.96-7.6,35.55-11.38c16.98-5.1,33.89-7.69,50.26-7.69c20.72,0,37.1,4.07,48.48,8.27
				c-8.88-4.08-19.21-7.53-31.21-9.81c-7.03-1.13-14.72-1.7-22.81-1.7c-23.58,0-51.28,4.64-87.19,14.61
				c-5.97,1.55-11.96,3.26-18.3,5.07c-22.71,6.48-46.2,13.18-70.61,13.18c-15.77,0-29.99-2.81-43.47-8.6
				c-23.98-9.58-42.44-25.3-51.94-44.25c-10.13-19.13-7.57-43.55,6.39-60.75c9.62-14.49,25.25-23.54,40.73-23.54
				c3.31,0,6.56,0.43,9.65,1.27c17.82,4.28,31.47,19.73,31.72,35.93c-0.06,3.23-0.53,6.48-1.42,9.95
				c-2.81,6.85-8.59,15.33-20.45,17.53c-5.61,1.04-9.07,0.54-10.95-1.57c-2.13-2.4-1.66-6.4-1.16-10.63
				c0.45-3.8,0.92-7.73-0.23-11.11c-0.87-2.55-1.95-4.83-2.9-6.84c-2.64-5.56-4.79-10.11-0.22-15.57c-5,1.4-14.44,4.99-19.25,12.93
				c-3.63,5.99-4.01,13.43-1.13,22.09c0.56,0.93,4.09,7.25-0.03,11.24c-0.95,0.93-2.05,1.4-3.25,1.4c-1.31,0-2.57-0.58-3.65-1.33
				c2.83,6.18,10.23,17.22,26.89,17.22c3.21,0,6.65-0.42,10.24-1.25c13.84-3.2,24.55-14.77,27.95-30.18
				c3.54-16.07-1.72-31.85-13.72-41.19c-5.28-4.6-11.56-7.93-18.2-9.65C171.44,297.15,167.97,296.67,164.42,296.67z"/>
		</g>
	</g>
	<g>
		<g>
			<path class="st3" d="M469.2,379.73c0,0,8.34,19.95-10.05,18.3c-18.37-1.67-57.77-53.44-104.16-38.93
				c-46.38,14.53-61.55,13.53-75.17,0.93c0,0,17.27,34.33,51.15,25.87c33.89-8.51,114.94-11.64,165.22,63.19
				C496.18,449.1,498.76,402.45,469.2,379.73"/>
			<path class="st3" d="M497.01,452.09l-1.64-2.44c-39.2-58.34-96.5-67.05-127.17-67.05c-12.91,0-26.05,1.51-36.99,4.26
				c-3.65,0.91-7.28,1.37-10.79,1.37c-27.2,0-41.33-27.47-41.47-27.75l1.55-1.17c7.25,6.71,14.4,9.45,24.68,9.45c0,0,0,0,0,0
				c10.88,0,26.15-3.27,49.53-10.59c5.53-1.73,11.26-2.61,17.03-2.61c24.69,0,46.22,15.47,63.53,27.89
				c9.77,7.02,18.21,13.08,23.99,13.61c4.78,0.43,7.92-0.61,9.54-3.04c3.23-4.84-0.45-13.82-0.49-13.91l-1.42-3.41l2.93,2.25
				c29.63,22.77,27.39,69.73,27.37,70.2L497.01,452.09z M368.19,380.63c30.61,0,87.4,8.57,127.05,65.35
				c-0.06-10.3-2.03-44.08-24.05-63.34c0.91,3.42,1.7,8.76-0.77,12.47c-1.77,2.66-4.87,4.01-9.21,4.01c0,0,0,0,0,0
				c-0.67,0-1.38-0.03-2.14-0.1c-6.31-0.58-14.54-6.48-24.96-13.97c-17.07-12.26-38.32-27.52-62.38-27.52
				c-5.57,0-11.1,0.85-16.44,2.52c-23.9,7.49-38.89,10.68-50.12,10.68c0,0,0,0,0,0c-8.55,0-15.24-1.91-21.44-6.26
				c5.34,7.7,17.72,21.79,36.69,21.79c3.36,0,6.83-0.44,10.32-1.31C341.81,382.16,355.12,380.63,368.19,380.63z"/>
		</g>
	</g>
	<g>
		<g>
			<path class="st3" d="M202.43,416.38c23.77,17.36,49.36,5.37,73.91-5.92c32.06-14.77,63.07-12.13,63.07-12.13
				s-32.59-9.49-68.36,1.85c-35.76,11.35-66.66-4.98-70.17-23.53C200.87,376.64,178.67,398.99,202.43,416.38"/>
			<path class="st3" d="M228.92,426.1C228.92,426.1,228.92,426.1,228.92,426.1c-9.99,0-18.84-2.92-27.07-8.93
				c-6.98-5.11-10.78-11.15-11.32-17.96c-0.97-12.42,9.21-22.82,9.64-23.26l1.32-1.33l0.35,1.84c2.46,13.01,20.21,26.48,45.65,26.48
				c0,0,0,0,0,0c7.69,0,15.51-1.25,23.25-3.7c11.75-3.73,24.39-5.62,37.56-5.62c18.26,0,31.25,3.72,31.37,3.76l-0.36,1.93
				c-0.02,0-2.16-0.18-5.82-0.18c-11.28,0-33.66,1.59-56.75,12.22l-0.56,0.26C260.7,418.73,244.68,426.1,228.92,426.1z
				 M200.36,378.71c-2.63,3.15-8.58,11.32-7.86,20.36c0.49,6.21,4.03,11.77,10.52,16.51c7.88,5.75,16.35,8.55,25.91,8.55
				c15.33,0,31.15-7.28,46.45-14.32l0.56-0.26c20.8-9.58,41.03-11.93,53.32-12.33c-5.35-0.85-12.58-1.64-20.94-1.64
				c-12.97,0-25.41,1.86-36.96,5.52c-7.93,2.52-15.95,3.79-23.85,3.79C222.23,404.91,204.21,391.9,200.36,378.71z"/>
		</g>
	</g>
	<g>
		<g>
			<path class="st3" d="M171.11,457.12c-2.38,5.28-2.81,11.26,12.71,16.1c10.29,3.2,22.94,2.36,33.72,0.8
				c16.63-2.41,31.49-5.35,31.49-5.35s17.08-1.05,7.79,16.42c0,0,11.84-2.83,20.12-15.11c8.27-12.26,34.93-32.78,43.34-21.17
				c8.43,11.59-6.82,15.37,6.46,29.7c0,0,33.75-52.43,76.64-55.23c40.22-2.62,63.41,17.02,63.41,17.02s-34.29-42.43-116.92-18.52
				c-82.62,23.89-91.11,41.34-129.85,37.68c0,0-25.14-1.83-36.42-5.35C179.02,452.66,172.82,453.33,171.11,457.12"/>
			<path class="st3" d="M254.93,486.55l1.03-1.93c2.74-5.16,3.37-9.06,1.85-11.58c-1.9-3.16-6.78-3.41-8.23-3.41
				c-0.29,0-0.46,0.01-0.48,0.01c-0.02,0.01-14.94,2.95-31.41,5.34c-6.49,0.94-12.13,1.4-17.26,1.4c-6.46,0-12.14-0.75-16.9-2.23
				c-7.76-2.41-12.32-5.35-13.95-8.97c-1.41-3.14-0.4-6.17,0.64-8.47c1.22-2.69,4.47-4.29,8.71-4.29c1.69,0,3.41,0.26,4.97,0.76
				c11.03,3.44,35.94,5.29,36.19,5.31c22.22,2.1,34.42-2.83,57.18-12.16c15.97-6.55,37.85-15.52,72.33-25.49
				c16.84-4.87,32.96-7.35,47.91-7.35c48.32,0,69.84,25.93,70.05,26.19l-1.4,1.37c-0.2-0.17-20.55-17.03-55.43-17.03
				c-2.4,0-4.85,0.08-7.28,0.24c-41.91,2.73-75.54,54.26-75.88,54.78l-0.69,1.07l-0.86-0.93c-7.67-8.27-6.22-13.46-4.95-18.04
				c1.04-3.71,1.93-6.91-1.59-11.75c-1.48-2.04-3.6-3.03-6.48-3.03c-10.99,0-28.68,14.44-35.24,24.17
				c-8.39,12.45-20.2,15.4-20.7,15.52L254.93,486.55z M249.57,467.67c2.2,0,7.56,0.43,9.92,4.36c1.66,2.76,1.4,6.58-0.75,11.38
				c3.72-1.43,11.51-5.28,17.38-13.99c6.8-10.08,25.28-25.04,36.87-25.04c3.51,0,6.23,1.29,8.08,3.85c4.08,5.61,2.97,9.59,1.9,13.44
				c-1.2,4.29-2.33,8.35,3.66,15.24c5.14-7.51,37.23-52.04,76.69-54.61c2.47-0.16,4.96-0.24,7.41-0.24c21.02,0,36.89,6.02,46.42,11
				c-10.25-7.48-29.66-17.59-59.64-17.59c-14.76,0-30.69,2.45-47.36,7.27c-34.39,9.94-56.2,18.89-72.13,25.42
				c-19.45,7.97-31.19,12.79-48.25,12.79c-3.13,0-6.34-0.16-9.84-0.49c-1.01-0.07-25.36-1.88-36.62-5.39
				c-1.38-0.44-2.89-0.67-4.38-0.67c-3.44,0-6.03,1.17-6.92,3.13c-1.29,2.85-1.48,4.97-0.63,6.85c1.36,3.03,5.65,5.69,12.74,7.89
				c4.57,1.42,10.06,2.14,16.31,2.14c5.03,0,10.58-0.45,16.97-1.38c16.42-2.38,31.29-5.31,31.44-5.34
				C248.97,467.68,249.19,467.67,249.57,467.67z"/>
		</g>
	</g>
</g>
<g>
	<path class="st3" d="M856.12,349.11c-0.19,0-0.39-0.01-0.58-0.03c-3.32-0.32-5.75-3.26-5.43-6.58
		c7.97-83.5-21.16-150.75-82.02-189.36c-59.94-38.03-140.9-39.46-201.45-3.56c-62.31,36.95-93.51,105.22-87.85,192.24
		c0.22,3.33-2.3,6.2-5.63,6.41c-3.28,0.23-6.2-2.3-6.41-5.63c-5.97-91.79,27.32-164.03,93.73-203.41
		c64.37-38.16,150.4-36.65,214.07,3.75c37.58,23.85,98.93,81.62,87.57,200.7C861.82,346.77,859.19,349.11,856.12,349.11z"/>
	<path class="st3" d="M856.12,350.09c-0.23,0-0.46-0.01-0.68-0.03c-3.85-0.37-6.68-3.8-6.32-7.65
		c7.93-83.11-21.04-150.03-81.57-188.44c-30.3-19.22-66.1-29.38-103.54-29.38c-34.87,0-68.37,8.94-96.88,25.84
		c-61.97,36.74-93,104.69-87.37,191.33c0.12,1.87-0.49,3.68-1.73,5.09c-1.24,1.41-2.95,2.25-4.82,2.37
		c-0.16,0.01-0.32,0.02-0.48,0.02c-3.68,0-6.74-2.88-6.98-6.57c-6-92.18,27.46-164.74,94.21-204.32
		c30.63-18.16,66.6-27.76,104.03-27.76c40.16,0,78.57,10.9,111.07,31.52c37.77,23.97,99.44,82.03,88.03,201.62
		C862.75,347.36,859.75,350.09,856.12,350.09z M664.01,122.61c37.82,0,73.98,10.27,104.59,29.69
		c61.19,38.82,90.48,106.4,82.48,190.29c-0.26,2.77,1.78,5.24,4.55,5.51c2.81,0.29,5.24-1.78,5.5-4.55
		C872.44,225,811.4,167.5,774.01,143.78c-32.19-20.42-70.23-31.21-110.02-31.21c-37.08,0-72.7,9.5-103.03,27.48
		c-66.08,39.18-99.2,111.09-93.25,202.49c0.18,2.76,2.56,4.88,5.36,4.71c1.35-0.09,2.58-0.69,3.47-1.71
		c0.89-1.01,1.33-2.31,1.24-3.66c-5.69-87.41,25.68-156.01,88.33-193.15C594.94,131.65,628.78,122.61,664.01,122.61z"/>
</g>
<g>
	<g>
		<path class="st4" d="M829.68,307.37c-0.18-6.56-0.81-13.04-1.77-19.39l-33.78-5.6l-11.45-31.96l22.51-25.81
			c-6.83-11.36-14.95-21.82-24.13-31.22l-30.63,15.38l-28.08-19.1l3.04-34.16c-11.65-4.91-23.96-8.6-36.75-10.82l-15.91,30.4
			l-33.96,0.8l-17.44-29.56c-13.06,2.97-25.53,7.4-37.24,13.16l5,33.92l-26.99,20.65l-31.45-13.58
			c-8.63,9.88-16.16,20.77-22.35,32.51l23.94,24.47l-9.64,32.55l-33.43,7.53c-0.6,6.73-0.86,13.62-0.64,20.61
			c0.24,6.38,0.81,12.64,1.68,18.81l33.8,5.69l11.35,32l-22.66,25.75c6.85,11.37,14.94,21.94,24.12,31.37l30.69-15.28l28.03,19.18
			l-3.18,34.17c12.02,5.09,24.69,8.91,37.87,11.17l15.82-30.47l33.96-0.94l17.5,29.51c13.05-3.03,25.5-7.53,37.21-13.31l-5.1-33.91
			l26.9-20.76l31.49,13.49c8.64-9.95,16.15-20.86,22.28-32.59l-24.08-24.37l9.52-32.64l33.45-7.58
			C829.69,320.82,829.92,314.12,829.68,307.37z M709.56,370.22c-31.69,27.84-80.02,24.87-107.98-6.98
			c-27.81-31.82-24.72-80.09,7.07-107.9c31.66-27.97,80.01-24.87,107.88,6.87C744.54,294,741.33,342.37,709.56,370.22z"/>
		<path class="st5" d="M743.21,238.9c-40.79-46.45-111.62-51.07-158.08-10.28c-46.41,40.83-51.01,111.54-10.11,158.06
			c40.78,46.43,111.56,51,157.97,10.22C779.45,356.1,784,285.32,743.21,238.9z M725.74,388.64
			c-41.86,36.79-105.71,32.66-142.49-9.21c-36.89-41.96-32.74-105.74,9.12-142.57c41.91-36.79,105.8-32.62,142.59,9.28
			C771.76,288,767.65,351.85,725.74,388.64z"/>
		<path class="st6" d="M594.38,434.91l1.12,0.77l-2.6,33.88l-0.58,0.29c12.02,5.09,24.69,8.91,37.87,11.17l-0.31-0.55l16.13-29.91
			l33.96-0.94l17.84,28.93l-0.34,0.58c13.05-3.03,25.5-7.53,37.21-13.31l-0.56-0.24l-4.54-33.66l26.9-20.76l31.45,12.92l0.03,0.58
			c8.64-9.95,16.15-20.86,22.28-32.59l-0.59,0.16l-23.48-24.53l9.52-32.64l33.02-8l0.43,0.42c0.54-6.62,0.77-13.32,0.53-20.07
			c-0.18-6.56-0.81-13.04-1.77-19.39l-0.36,0.49l-9.48-1.72C754.62,378.24,665.25,417.9,594.38,434.91z"/>
		<path class="st7" d="M732.99,396.89c15.94-13.99,26.94-31.52,32.88-50.37c-6.21,5.66-12.52,11.01-18.92,16.06
			c-5.42,9.56-12.48,18.4-21.2,26.06c-19.05,16.74-42.66,24.98-66.2,25.07c-7.66,3.2-15.26,6.11-22.77,8.74
			C669.9,429.17,705.66,420.9,732.99,396.89z"/>
	</g>
	<path class="st8" d="M590.27,186.01l-3.25-27.48c0,0,16.25-8.57,28.67-10.64C615.68,147.89,595.59,155.28,590.27,186.01z"/>
</g>
<path class="st0" d="M637.02,328.58c2.98,0,5.64,0.05,8.3-0.01c10.08-0.23,18.03-7.82,19.08-17.59c1.01-9.41-5.43-18.36-14.84-20.57
	c-1.62-0.38-3.33-0.54-5-0.55c-8.35-0.05-16.7-0.03-25.06-0.03c-0.68,0-1.35,0-2.17,0c0-9.62,0-19.11,0-28.72
	c29.98,0,59.88,0,89.91,0c0,6.9,0,13.78,0,20.76c-2.86,0-5.64,0-8.66,0c0-3.92,0-7.81,0-11.81c-24.26,0-48.29,0-72.46,0
	c0,3.61,0,7.19,0,11.05c0.67,0,1.33,0,1.99,0c5.61,0,11.22-0.01,16.83,0c13.43,0.04,24.56,8.84,27.58,21.93
	c0.35,1.49,0.94,1.81,2.35,1.8c10.22-0.06,20.44,0.01,30.67-0.07c1.72-0.01,2.14,0.56,1.97,2.17c-0.15,1.48-0.09,2.99,0.03,4.47
	c0.13,1.62-0.26,2.32-2.12,2.29c-8.34-0.1-16.68-0.05-25.02-0.05c-2.05,0-4.1-0.06-6.15,0.04c-0.52,0.03-1.33,0.47-1.47,0.89
	c-4.12,12.71-7.73,16.71-19.82,21.77c0.08,0.22,0.13,0.46,0.25,0.65c4.15,6.14,8.3,12.29,12.5,18.4c0.33,0.47,1.06,0.95,1.61,0.95
	c10.16,0.05,20.32,0.03,30.48,0.02c0.17,0,0.34-0.1,0.66-0.2c0-3.83,0-7.67,0-11.68c2.97,0,5.79,0,8.76,0c0,6.85,0,13.73,0,20.85
	c-0.72,0-1.38,0-2.05,0c-13.9,0-27.8,0-41.7,0c-0.99,0-1.84,0.02-2.55-1.04c-7.76-11.6-15.59-23.16-23.4-34.73
	C637.43,329.41,637.34,329.19,637.02,328.58z"/>
<path class="st0" d="M625.98,356.43c5.9,0,11.5,0.04,17.1-0.03c1.34-0.02,2.16,0.35,2.87,1.51c1.48,2.42,3.12,4.75,4.85,7.34
	c-11.29,0-22.27,0-33.52,0c0-22.11,0-44.21,0-66.47c2.9,0,5.72,0,8.71,0C625.98,317.96,625.98,337.05,625.98,356.43z"/>
</svg>
